<svg width="80" height="70" viewBox="0 0 80 70" fill="none" xmlns="http://www.w3.org/2000/svg">
<g clip-path="url(#clip0_1557_37895)">
<path d="M55.1832 69.3801L50.7494 58.691M48.1977 52.5652L45.3934 45.807M43.0185 40.0904L25.9905 0.620117M28.4538 6.31188L7.21921 15.3517L14.2174 20.7335L13.27 29.4013L34.5172 20.3615M4.9707 69.3801L7.24448 58.8274C7.83819 56.0621 9.79616 54.6733 12.8784 54.1028L20.5587 52.5776M63.6973 69.3925L59.794 58.691M75.0283 69.3925L71.5923 57.4757C70.9986 54.7229 69.268 52.5776 64.4047 52.5776H45.9618C45.9618 52.5776 46.985 58.691 52.1136 58.691H64.4047M31.3212 69.3925L34.3908 54.1152M17.4891 69.3925L21.0766 52.7264C21.6703 49.9735 23.6283 48.5723 26.7105 48.0019L35.9319 46.4766L45.0649 38.2676C45.0649 38.2676 48.0966 43.4137 44.7365 46.5634L38.1426 53.0488L28.0622 56.1117M56.7244 42.6449C56.7244 45.5962 59.1371 47.9895 62.1056 47.9895C65.0742 47.9895 67.4869 45.5962 67.4869 42.6449C67.4869 39.6936 65.0742 37.3004 62.1056 37.3004C59.1371 37.3004 56.7244 39.6936 56.7244 42.6449ZM17.4765 44.1702C17.4765 47.1214 15.0637 49.5147 12.0952 49.5147C9.12666 49.5147 6.71393 47.1214 6.71393 44.1702C6.71393 41.2189 9.12666 38.8256 12.0952 38.8256C15.0637 38.8256 17.4765 41.2189 17.4765 44.1702ZM32.8371 38.0568C32.8371 41.0081 30.4244 43.4013 27.4558 43.4013C24.4873 43.4013 22.0745 41.0081 22.0745 38.0568C22.0745 35.1055 24.4873 32.7122 27.4558 32.7122C30.4244 32.7122 32.8371 35.1055 32.8371 38.0568V38.0568Z" stroke="#535353" stroke-linecap="round" stroke-linejoin="round"/>
<path d="M28.8965 9.03979L12.1211 16.0336L16.7065 19.7661L15.9107 25.6687L33.0146 18.5509L28.8965 9.03979Z" fill="#2FB4E9"/>
</g>
<defs>
<clipPath id="clip0_1557_37895">
<rect width="71.3208" height="70" fill="white" transform="translate(4.33984)"/>
</clipPath>
</defs>
</svg>
