<svg width="80" height="70" viewBox="0 0 80 70" fill="none" xmlns="http://www.w3.org/2000/svg">
<g clip-path="url(#clip0_1557_37881)">
<path d="M48.4531 54.2271V60.8492M39.6151 60.7124V55.3679M34.8441 30.9394L36.8516 33.2988C37.2557 33.742 37.9074 33.742 38.3115 33.2988L41.1859 31.4803L36.4149 26.2009L34.8441 29.323C34.44 29.7662 34.44 30.4962 34.8441 30.9394Z" stroke="#535353" stroke-miterlimit="10"/>
<path d="M54.2673 21.8407L56.2226 23.7569C56.8614 24.3957 57.9173 24.3957 58.556 23.7569L60.1203 22.2188C60.759 21.58 60.759 20.5633 60.1203 19.9245L58.1649 18.0083M25.3677 37.3269L19.1237 43.4536C18.3807 44.1835 18.3807 45.3567 19.1237 46.0867L20.9226 47.8595C21.6656 48.5895 22.8649 48.5895 23.6079 47.8595L29.8519 41.7329M33.4106 45.2133L21.822 33.8464" stroke="#535353" stroke-miterlimit="10" stroke-linecap="round"/>
<path d="M60.0027 22.8704C66.5074 29.4142 65.0996 40.6769 56.7569 49.0717C48.4142 57.4666 34.8703 57.4666 26.5276 49.0717L24.5723 47.1034M60.6284 1.63564L65.3472 6.38055C65.7904 6.83679 65.7904 7.56678 65.3472 8.00999L62.6228 9.69156L57.3304 4.37309L59.012 1.63564C59.4552 1.1794 60.1852 1.1794 60.6284 1.63564V1.63564ZM35.3787 24.552L42.5352 31.7476C42.8871 32.0996 43.4607 32.0996 43.8126 31.7476L63.5483 11.9206C63.9003 11.5687 63.9003 10.9821 63.5483 10.6301L56.3919 3.43453C56.0399 3.08258 55.4663 3.08258 55.1144 3.43453L35.3787 23.2615C35.0267 23.6135 35.0267 24.187 35.3787 24.552V24.552Z" stroke="#535353" stroke-miterlimit="10"/>
<path d="M41.5312 22.2969L50.7082 13.1199L53.8628 16.2745L42.7827 27.3546C42.8087 25.8295 42.5219 24.0436 41.5312 22.3099" fill="#2FB4E9"/>
<path d="M55.3501 15.4013L51.4656 11.4385M14.3145 48.7199L18.7856 53.2824M56.3539 68.7033H31.2997L32.0297 65.1707C32.512 62.8374 34.5325 61.1558 36.8658 61.1558H50.7877C53.1341 61.1558 55.1546 62.8243 55.6239 65.1707L56.3539 68.7033Z" stroke="#535353" stroke-miterlimit="10" stroke-linecap="round"/>
</g>
<defs>
<clipPath id="clip0_1557_37881">
<rect width="52.6764" height="68.71" fill="white" transform="translate(13.6621 0.64502)"/>
</clipPath>
</defs>
</svg>
