<svg id="Layer_1" data-name="Layer 1" xmlns="http://www.w3.org/2000/svg" xmlns:xlink="http://www.w3.org/1999/xlink" viewBox="0 0 500 250"><defs><style>.cls-1{isolation:isolate;}.cls-2{clip-path:url(#clip-path);}.cls-3{fill:none;}.cls-4{fill:url(#linear-gradient);}.cls-5{clip-path:url(#clip-path-2);}.cls-6{mask:url(#mask);}.cls-7{clip-path:url(#clip-path-3);}.cls-8{clip-path:url(#clip-path-4);}.cls-9{fill:url(#linear-gradient-2);}.cls-10{fill:url(#linear-gradient-3);}.cls-11{fill:url(#linear-gradient-4);}.cls-12{fill:url(#linear-gradient-5);}.cls-13{fill:url(#linear-gradient-6);}.cls-14{fill:url(#linear-gradient-7);}.cls-15{fill:url(#linear-gradient-8);}.cls-16{fill:url(#linear-gradient-9);}.cls-17{fill:url(#linear-gradient-10);}.cls-18{fill:url(#linear-gradient-11);}.cls-19{fill:url(#linear-gradient-12);}.cls-20{fill:url(#linear-gradient-13);}.cls-21{fill:url(#linear-gradient-14);}.cls-22{fill:url(#linear-gradient-15);}.cls-23{fill:url(#linear-gradient-16);}.cls-24{fill:url(#linear-gradient-17);}.cls-25{fill:url(#linear-gradient-18);}.cls-26{fill:url(#linear-gradient-19);}.cls-27{fill:url(#linear-gradient-20);}.cls-28{fill:url(#linear-gradient-21);}.cls-29{fill:url(#linear-gradient-22);}.cls-30{fill:url(#linear-gradient-23);}.cls-31{fill:url(#linear-gradient-24);}.cls-32{fill:url(#linear-gradient-25);}.cls-33{fill:url(#linear-gradient-26);}.cls-34{fill:url(#linear-gradient-27);}.cls-35{fill:url(#linear-gradient-28);}.cls-36{fill:url(#linear-gradient-29);}.cls-37{fill:url(#linear-gradient-30);}.cls-38{fill:url(#linear-gradient-31);}.cls-39{fill:url(#linear-gradient-32);}</style><clipPath id="clip-path"><rect class="cls-3" x="170.07" y="-40.28" width="151.32" height="221.34" transform="translate(137.77 302.08) rotate(-81)"/></clipPath><linearGradient id="linear-gradient" x1="-865.35" y1="556.8" x2="-863.49" y2="556.8" gradientTransform="matrix(-61.42, 0, 0, 61.42, -52855.3, -34126.4)" gradientUnits="userSpaceOnUse"><stop offset="0" stop-color="#fff"/><stop offset="0.04" stop-color="#fff"/><stop offset="0.25" stop-color="#fff"/><stop offset="0.47" stop-color="#fff"/><stop offset="0.92" stop-color="#231f20"/><stop offset="1" stop-color="#231f20"/></linearGradient><clipPath id="clip-path-2"><path class="cls-3" d="M240.65,125.83c-4.2.11-7.58,1.28-7.55,2.61s3.48,2.32,7.68,2.21,7.6-1.29,7.56-2.61-3.12-2.21-7-2.21Zm17.31,0c-4.13.87-7.26,2.47-7,3.58s3.77,1.27,7.89.4,7.26-2.49,7-3.59c-.14-.62-1.35-1-3.14-1a23.16,23.16,0,0,0-4.74.57m-43.61,1.27c-.1,1.49,3.18,3,7.31,3.21s7.58-.72,7.68-2.2-3.17-2.93-7.32-3.2l-1.39,0c-3.5,0-6.2.92-6.28,2.23m59.6-2c-4.05,1.13-7.09,2.93-6.8,4s3.85,1,7.9-.11,7.09-2.91,6.79-4c-.16-.52-1.07-.78-2.41-.78a20.87,20.87,0,0,0-5.48.88m-78.64-.44c-.34,1.52,2.79,3.51,7,4.45s7.87.46,8.21-1.05-2.79-3.49-7-4.43a19.76,19.76,0,0,0-4.11-.48c-2.26,0-3.89.54-4.11,1.51m92.26-.75c-3.72,1.84-6.33,4.15-5.83,5.16s3.92.31,7.63-1.55,6.34-4.15,5.83-5.15c-.16-.31-.6-.46-1.23-.46a16.84,16.84,0,0,0-6.4,2m-110.91-.57c-.46,1.69,2.7,4,7.05,5.22s8.25.76,8.72-.94-2.7-4-7.06-5.2a17.51,17.51,0,0,0-4.64-.69c-2.2,0-3.78.56-4.07,1.61m67.86-5.79c-5.27.14-9.47,1.71-9.42,3.52s4.33,3.14,9.59,3,9.47-1.71,9.42-3.51-3.94-3-8.83-3Zm21.3,0c-5.07,1.42-8.86,3.76-8.46,5.22s4.86,1.49,10,.08,8.86-3.77,8.45-5.23c-.21-.76-1.47-1.13-3.31-1.13a25.91,25.91,0,0,0-6.64,1.06m-54.59.5c-.29,2.12,3.73,4.42,9,5.16s9.76-.35,10.07-2.45-3.73-4.42-9-5.16a24.63,24.63,0,0,0-3.24-.24c-3.75,0-6.6,1-6.84,2.69m74.61-2.12c-4.67,2-8,4.69-7.46,5.93s4.76.59,9.43-1.45,8-4.71,7.45-5.94c-.17-.43-.8-.62-1.73-.62a21.37,21.37,0,0,0-7.69,2.08m-98.19-2.11c-.59,2.28,3.2,5.21,8.46,6.57s10,.58,10.58-1.7-3.2-5.23-8.46-6.57a20.45,20.45,0,0,0-5-.66c-3,0-5.21.84-5.6,2.36m115.09-1.25c-4.43,2.92-7.48,6.15-6.78,7.18s4.82-.49,9.27-3.41,7.47-6.13,6.77-7.16a5.52,5.52,0,0,0-.72-.06c-2.37,0-5.39,1.39-8.54,3.45M164.41,108.2c-1.14,2.28,2.15,6.25,7.36,8.83s10.33,2.86,11.47.6-2.15-6.25-7.36-8.84a18.24,18.24,0,0,0-7.78-2.14c-1.82,0-3.16.51-3.69,1.55m84.65-1.88c-6.33.39-11.33,2.72-11.17,5.18s5.42,4.11,11.75,3.7S261,112.47,260.82,110c-.13-2.21-4.39-3.77-9.85-3.77Zm26.37.25c-6.19,1.73-10.74,4.71-10.2,6.68s6,2.15,12.18.43S288.14,109,287.59,107c-.3-1.07-2-1.61-4.53-1.61a29,29,0,0,0-7.63,1.19m-66-.23c-.4,2.87,4.34,5.92,10.64,6.81s11.69-.72,12.1-3.59-4.34-5.93-10.63-6.82a25.46,25.46,0,0,0-3.42-.24c-4.73,0-8.36,1.49-8.69,3.84m90-3.74c-5.68,3-9.64,6.67-8.81,8.2s6.07.36,11.75-2.64,9.61-6.67,8.81-8.21c-.24-.44-.88-.66-1.8-.66-2.17,0-5.95,1.2-9.95,3.31M181,97.08c-1.3,3,2.54,7.6,8.63,10.27s12,2.42,13.37-.57-2.53-7.59-8.6-10.26a20.18,20.18,0,0,0-7.95-1.85c-2.67,0-4.73.81-5.45,2.41m75-5.71c-7.51.22-13.53,3.25-13.42,6.79s6.27,6.23,13.78,6,13.52-3.25,13.44-6.8-5.82-6-13-6Zm29.75.72c-7,2.72-12,6.88-11.08,9.29s7.41,2.17,14.45-.55,12-6.87,11.07-9.28c-.43-1.12-2-1.67-4.33-1.67a30.23,30.23,0,0,0-10.11,2.21m33.9,3.26c-5.07,4.45-8.42,9-7.47,10s5.83-1.64,10.91-6.08,8.42-8.93,7.47-10l-.33,0c-2.44,0-6.45,2.48-10.58,6.09m-166.8-9.19c-2.22,3,.65,8.87,6.4,13.17s12.24,5.37,14.45,2.38-.63-8.87-6.4-13.15C163.77,85.9,160,84.47,157,84.47a5,5,0,0,0-4.13,1.69m57.46,2.23c-1.33,4,3.46,9.21,10.71,11.59s14.16,1,15.48-3-3.47-9.22-10.71-11.59a22.51,22.51,0,0,0-7-1.18c-4.26,0-7.63,1.48-8.5,4.15m103.24-3.93c-6.19,4.83-10.12,10.16-8.75,11.9s7.46-.77,13.66-5.6,10.13-10.17,8.79-11.89a1.78,1.78,0,0,0-1.5-.56c-2.49,0-7.31,2.36-12.2,6.15M264.51,72.1c-8,.42-14.28,4.3-14,8.65s6.9,7.52,14.89,7.09,14.27-4.3,14-8.64c-.22-4.08-6.11-7.14-13.43-7.14Zm-85.89,1.46c-2.62,3.88.56,10.6,7.09,15s14,4.84,16.58,1-.55-10.62-7.09-15a19.51,19.51,0,0,0-10.5-3.63c-2.66,0-4.88.88-6.08,2.66M296.09,73c-7.39,3.7-12.06,9.36-10.43,12.64s9,2.93,16.37-.78,12.05-9.37,10.41-12.64c-.74-1.5-2.71-2.25-5.31-2.25a26.1,26.1,0,0,0-11,3m-80.39-4.7c-1.34,5.43,4,11.43,12,13.4s15.54-.84,16.88-6.28-4-11.42-12-13.38a20.62,20.62,0,0,0-5.08-.64c-5.89,0-10.74,2.64-11.79,6.9M347,58.41c-1.78,0-6.18,5.1-10.51,11.93-4.67,7.35-7.49,13.9-6.32,14.65s5.9-4.62,10.56-11.95,7.47-13.9,6.3-14.63ZM147.58,52.24c-4.34,3.27-3.44,11.79,2,19.06S163,81.79,167.36,78.53s3.42-11.79-2-19.06c-4-5.34-9.39-8.49-13.66-8.49a6.68,6.68,0,0,0-4.08,1.26m178.78,8.51c-6.16,7.39-9.49,14.77-7.44,16.46s8.68-2.89,14.85-10.28,9.49-14.77,7.43-16.48h-.45c-3.89,0-9.31,4.21-14.39,10.31M184.27,45.18c-4,5.93-1.31,14.77,6,19.73s16.54,4.15,20.55-1.78,1.32-14.77-6-19.74a18.41,18.41,0,0,0-10.19-3.25,12.21,12.21,0,0,0-10.37,5M163.86,10c-9.17,1.06-14.64,10.4-13.38,21s8.8,18.41,16.82,17.46,13.51-10.33,12.24-20.92c-1.18-9.92-7.85-17.39-15.29-17.52Z"/></clipPath><mask id="mask" x="96.14" y="-59.09" width="299.17" height="258.96" maskUnits="userSpaceOnUse"><rect x="96.14" y="-59.09" width="299.17" height="258.96"/><g class="cls-1"><rect x="124.58" y="-21.66" width="242.29" height="184.09"/><g class="cls-2"><rect class="cls-4" x="135.87" y="-63.66" width="219.72" height="268.1" transform="translate(137.77 302.08) rotate(-81)"/></g></g></mask><clipPath id="clip-path-3"><rect class="cls-3" x="96.14" y="-59.09" width="299.17" height="258.96"/></clipPath><clipPath id="clip-path-4"><polygon class="cls-3" points="148.25 -21.65 124.58 127.8 343.2 162.43 366.87 12.97 148.29 -21.65 148.25 -21.65"/></clipPath><linearGradient id="linear-gradient-2" x1="-865.35" y1="556.8" x2="-863.49" y2="556.8" gradientTransform="matrix(-61.42, 0, 0, 61.42, -52855.3, -34126.39)" gradientUnits="userSpaceOnUse"><stop offset="0" stop-color="#18499b"/><stop offset="0.04" stop-color="#18499b"/><stop offset="0.25" stop-color="#18499b"/><stop offset="0.47" stop-color="#18499b"/><stop offset="0.92" stop-color="#18499b"/><stop offset="1" stop-color="#18499b"/></linearGradient><linearGradient id="linear-gradient-3" x1="47.31" y1="172.51" x2="229.68" y2="172.51" gradientTransform="matrix(1, 0, 0, 1, 0, 0)" xlink:href="#linear-gradient-2"/><linearGradient id="linear-gradient-4" x1="235.8" y1="172.29" x2="341.7" y2="172.29" gradientTransform="matrix(1, 0, 0, 1, 0, 0)" xlink:href="#linear-gradient-2"/><linearGradient id="linear-gradient-5" x1="347.49" y1="181.8" x2="383.85" y2="181.8" gradientTransform="matrix(1, 0, 0, 1, 0, 0)" xlink:href="#linear-gradient-2"/><linearGradient id="linear-gradient-6" x1="386.1" y1="181.84" x2="452.69" y2="181.84" gradientTransform="matrix(1, 0, 0, 1, 0, 0)" xlink:href="#linear-gradient-2"/><linearGradient id="linear-gradient-7" x1="115.49" y1="225.67" x2="128.06" y2="225.67" gradientTransform="matrix(1, 0, 0, 1, 0, 0)" xlink:href="#linear-gradient-2"/><linearGradient id="linear-gradient-8" x1="128.27" y1="228.41" x2="136.84" y2="228.41" gradientTransform="matrix(1, 0, 0, 1, 0, 0)" xlink:href="#linear-gradient-2"/><linearGradient id="linear-gradient-9" x1="136.78" y1="228.48" x2="147.19" y2="228.48" gradientTransform="matrix(1, 0, 0, 1, 0, 0)" xlink:href="#linear-gradient-2"/><linearGradient id="linear-gradient-10" x1="148.58" y1="228.38" x2="159.24" y2="228.38" gradientTransform="matrix(1, 0, 0, 1, 0, 0)" xlink:href="#linear-gradient-2"/><linearGradient id="linear-gradient-11" x1="161.05" y1="226.78" x2="168.19" y2="226.78" gradientTransform="matrix(1, 0, 0, 1, 0, 0)" xlink:href="#linear-gradient-2"/><linearGradient id="linear-gradient-12" x1="167.62" y1="225.67" x2="173.89" y2="225.67" gradientTransform="matrix(1, 0, 0, 1, 0, 0)" xlink:href="#linear-gradient-2"/><linearGradient id="linear-gradient-13" x1="173.13" y1="228.33" x2="184.21" y2="228.33" gradientTransform="matrix(1, 0, 0, 1, 0, 0)" xlink:href="#linear-gradient-2"/><linearGradient id="linear-gradient-14" x1="184.92" y1="230.86" x2="197.18" y2="230.86" gradientTransform="matrix(1, 0, 0, 1, 0, 0)" xlink:href="#linear-gradient-2"/><linearGradient id="linear-gradient-15" x1="204.23" y1="225.67" x2="218.33" y2="225.67" gradientTransform="matrix(1, 0, 0, 1, 0, 0)" xlink:href="#linear-gradient-2"/><linearGradient id="linear-gradient-16" x1="219.08" y1="225.67" x2="225.34" y2="225.67" gradientTransform="matrix(1, 0, 0, 1, 0, 0)" xlink:href="#linear-gradient-2"/><linearGradient id="linear-gradient-17" x1="224.66" y1="228.42" x2="234.65" y2="228.42" gradientTransform="matrix(1, 0, 0, 1, 0, 0)" xlink:href="#linear-gradient-2"/><linearGradient id="linear-gradient-18" x1="236.06" y1="226.78" x2="243.2" y2="226.78" gradientTransform="matrix(1, 0, 0, 1, 0, 0)" xlink:href="#linear-gradient-2"/><linearGradient id="linear-gradient-19" x1="242.63" y1="225.67" x2="248.89" y2="225.67" gradientTransform="matrix(1, 0, 0, 1, 0, 0)" xlink:href="#linear-gradient-2"/><linearGradient id="linear-gradient-20" x1="248.13" y1="228.33" x2="259.21" y2="228.33" gradientTransform="matrix(1, 0, 0, 1, 0, 0)" xlink:href="#linear-gradient-2"/><linearGradient id="linear-gradient-21" x1="261.02" y1="228.48" x2="270.92" y2="228.48" gradientTransform="matrix(1, 0, 0, 1, 0, 0)" xlink:href="#linear-gradient-2"/><linearGradient id="linear-gradient-22" x1="272.36" y1="226.78" x2="279.49" y2="226.78" gradientTransform="matrix(1, 0, 0, 1, 0, 0)" xlink:href="#linear-gradient-2"/><linearGradient id="linear-gradient-23" x1="278.92" y1="225.67" x2="285.19" y2="225.67" gradientTransform="matrix(1, 0, 0, 1, 0, 0)" xlink:href="#linear-gradient-2"/><linearGradient id="linear-gradient-24" x1="285.12" y1="228.48" x2="295.53" y2="228.48" gradientTransform="matrix(1, 0, 0, 1, 0, 0)" xlink:href="#linear-gradient-2"/><linearGradient id="linear-gradient-25" x1="296.66" y1="228.33" x2="307.74" y2="228.33" gradientTransform="matrix(1, 0, 0, 1, 0, 0)" xlink:href="#linear-gradient-2"/><linearGradient id="linear-gradient-26" x1="315.52" y1="225.52" x2="323.81" y2="225.52" gradientTransform="matrix(1, 0, 0, 1, 0, 0)" xlink:href="#linear-gradient-2"/><linearGradient id="linear-gradient-27" x1="322.61" y1="228.48" x2="333.04" y2="228.48" gradientTransform="matrix(1, 0, 0, 1, 0, 0)" xlink:href="#linear-gradient-2"/><linearGradient id="linear-gradient-28" x1="334.17" y1="228.41" x2="342.75" y2="228.41" gradientTransform="matrix(1, 0, 0, 1, 0, 0)" xlink:href="#linear-gradient-2"/><linearGradient id="linear-gradient-29" x1="348.84" y1="225.67" x2="358.04" y2="225.67" gradientTransform="matrix(1, 0, 0, 1, 0, 0)" xlink:href="#linear-gradient-2"/><linearGradient id="linear-gradient-30" x1="359.29" y1="225.67" x2="365.55" y2="225.67" gradientTransform="matrix(1, 0, 0, 1, 0, 0)" xlink:href="#linear-gradient-2"/><linearGradient id="linear-gradient-31" x1="365.06" y1="225.52" x2="373.36" y2="225.52" gradientTransform="matrix(1, 0, 0, 1, 0, 0)" xlink:href="#linear-gradient-2"/><linearGradient id="linear-gradient-32" x1="372.15" y1="228.48" x2="382.56" y2="228.48" gradientTransform="matrix(1, 0, 0, 1, 0, 0)" xlink:href="#linear-gradient-2"/></defs><g class="cls-5"><g class="cls-6"><g class="cls-7"><g class="cls-8"><rect class="cls-9" x="135.87" y="-63.66" width="219.72" height="268.1" transform="translate(137.77 302.08) rotate(-81)"/></g></g></g></g><path class="cls-10" d="M229.68,159.85H217.32v44h12.36Zm0-19.1H217.32v10.43h12.36Zm-17.35,62.82v-7.28c-1.31.09-2.45.17-3.33.17-3.93,0-4.56-1.13-4.56-5.33V167.31h7.89v-7.46h-7.89V147.07l-12.07,5.35v7.43h-5.7v7.46h5.7V192.7c0,8,3.42,11.57,11.12,11.57a82.79,82.79,0,0,0,8.84-.7m-50.36.26h12.35V180.17c0-7.44,2.54-10.67,9.64-10.67h1.13V158.81h-.78c-5.43,0-9.21,2.45-10.77,6.75l-.79-5.79H162Zm-42.74-32.5h11.38c0-4.12,2-6.22,5.89-6.22s4.89,2.55,4.89,8.23v2l-3.85.18c-13.4.53-19.54,4.82-19.54,14.9,0,8.49,4.55,13.75,11.83,13.75,4.89,0,9.63-2.2,11.82-5.36l1,5h10.94a54.94,54.94,0,0,1-.88-10.33V171.6c0-8.86-5-12.79-16.18-12.79-11.4,0-17.27,4.11-17.27,11.65ZM141.39,182v3.85c0,7.36-2.64,11-6.93,11-2.89,0-4.72-2.45-4.72-6.83,0-6.3,3.23-8,11.65-8M47.31,203.83H60.19l-.79-43.1c-.09-4.64-.17-10-.78-15.95l13.84,59.05H85.08l13.13-59c-.35,4.64-.53,10-.62,15.85l-.52,43.1h12.27V140.75H88.22l-8,38.56a97.53,97.53,0,0,0-1.76,13.22,112.64,112.64,0,0,0-1.91-13.14l-8.94-38.64H47.31Z"/><path class="cls-11" d="M312.19,150.32h5.69c9.81,0,11,6.74,11,21.8s-1.23,21.81-11,21.81h-5.69ZM299,140.75v63.08h20.67c16.83,0,22.07-8.94,22.07-31.53s-5.24-31.55-22.07-31.55Zm-50.35,63.08V172.55c0-3.84,2.09-6.21,5.24-6.21,3.43,0,4.12,2.55,4.12,7.44v30.05h12.36V170.36c0-7.54-4.21-11.55-11.92-11.55a10.51,10.51,0,0,0-9.8,5.6l-.36-4.56H235.8a49.61,49.61,0,0,1,.45,7.9v36.08Z"/><path class="cls-12" d="M366,158.81c-13.68,0-18.49,6.66-18.49,22.07,0,17.07,3.67,23.91,18.21,23.91s18.15-6.84,18.15-23.91c0-15.23-4.75-22.07-17.87-22.07m-6.05,22.6c0-10.51.78-14.91,5.69-14.91,5.08,0,5.87,4.31,5.87,14.91,0,11-1,15.77-5.79,15.77s-5.77-4.74-5.77-15.77"/><path class="cls-13" d="M397.41,203.83h12.88l6-19.88a112.62,112.62,0,0,0,3.16-15,79.26,79.26,0,0,0,2.37,14.8l5.34,20.06h13.22l12.27-44H440.34L436,182a123.47,123.47,0,0,0-2.18,13.48A86.22,86.22,0,0,0,431.49,182l-5.69-22.17H413l-4.81,17.7c-1.68,6.22-3.07,12.26-4.12,17.95a108.94,108.94,0,0,0-2-17.52l-3.32-18.13H386.1Z"/><path class="cls-14" d="M126.54,229.38q-1,5.88-6.13,5.88-4.92,0-4.92-5a30.34,30.34,0,0,1,.83-5.65c.29-1.33.5-2.26.64-2.79a12.22,12.22,0,0,1,1-2.65,5.75,5.75,0,0,1,5.43-3.09,5,5,0,0,1,3.39,1.09,4.1,4.1,0,0,1,1.3,3.26,6.12,6.12,0,0,1-.1,1.21h-2.45a5.51,5.51,0,0,0,.1-1.06,2.14,2.14,0,0,0-2.41-2.41,3.42,3.42,0,0,0-3.27,2.29,19.17,19.17,0,0,0-1,3.68,45.56,45.56,0,0,0-1,6.08c0,2,.87,3,2.65,3s3-1.27,3.5-3.81Z"/><path class="cls-15" d="M128.27,234.94l2.16-10.07a28.29,28.29,0,0,0,.44-2.86H133l-.39,2.17a3.84,3.84,0,0,1,3.54-2.29l.61,0h.07l-.43,2H136a3.34,3.34,0,0,0-2.89,1.31,8.62,8.62,0,0,0-1.16,3.12l-1.48,6.56Z"/><path class="cls-16" d="M146.28,230.79c-.62,3-2.36,4.47-5.2,4.47a4.47,4.47,0,0,1-3.11-1,3.88,3.88,0,0,1-1.19-3,18.41,18.41,0,0,1,.46-3.35,14.44,14.44,0,0,1,1.16-3.62,4.77,4.77,0,0,1,4.49-2.53q4.31,0,4.3,4.2a18.28,18.28,0,0,1-.41,3h-7.47a11.3,11.3,0,0,0-.28,2.36c0,1.47.8,2.2,2.42,2.2,1.23,0,2.08-.89,2.52-2.67Zm-6.61-3.5h5.13a7.71,7.71,0,0,0,.14-1.36c0-1.63-.7-2.43-2.11-2.43a2.52,2.52,0,0,0-2.26,1.21,7.92,7.92,0,0,0-.9,2.58"/><path class="cls-17" d="M155.66,232.93a4.38,4.38,0,0,1-3.71,2.14,3.29,3.29,0,0,1-2.47-.92,3.36,3.36,0,0,1-.9-2.5,4.28,4.28,0,0,1,2.09-4.06,9.61,9.61,0,0,1,4.76-.93l1.31,0h.07A8.75,8.75,0,0,0,157,225c0-1.09-.7-1.64-2.11-1.64a2.18,2.18,0,0,0-2.4,2.06h-2.37c.5-2.47,2.08-3.71,4.72-3.71,2.91,0,4.38,1.1,4.38,3.29a12.62,12.62,0,0,1-.3,2.36l-1.06,5a17.13,17.13,0,0,0-.37,2.63h-2.18Zm.85-4.68H156c-3.46,0-5.17,1.05-5.17,3.16a1.63,1.63,0,0,0,1.82,1.86c2.07,0,3.38-1.67,3.89-5"/><path class="cls-18" d="M165.43,234.94h-1.54c-1.72,0-2.57-.74-2.57-2.21,0,0,.08-.6.26-1.84v-.08l1.55-7.3h-2.09l.32-1.5h2.08l.55-2.58,2.4-.81-.7,3.39h2.49l-.31,1.5h-2.53l-1.65,7.81a4.84,4.84,0,0,0-.12.86c0,.71.51,1.07,1.6,1.07l.31,0h.31Z"/><path class="cls-19" d="M167.62,235,170.38,222h2.22L169.83,235ZM171,218.67l.49-2.28h2.37l-.47,2.28Z"/><path class="cls-20" d="M173.13,234.94l2.11-10c.16-.76.33-1.75.51-3h2.08l-.36,1.9a4.66,4.66,0,0,1,4-2.18c1.83,0,2.74,1,2.74,3a10.93,10.93,0,0,1-.27,1.8l-1.77,8.45H180l1.8-8.65a6.87,6.87,0,0,0,.19-1.24c0-1.06-.5-1.59-1.49-1.59a3,3,0,0,0-2.75,1.91,14.24,14.24,0,0,0-1.05,3.44l-1.33,6.13Z"/><path class="cls-21" d="M187.15,236.07l-.05.34c0,.1,0,.2,0,.28,0,1,.64,1.53,1.91,1.53a2.81,2.81,0,0,0,2.15-.79,4.69,4.69,0,0,0,.91-2.17l.4-2a4.29,4.29,0,0,1-3.15,1.31q-3.24,0-3.24-3.58a12,12,0,0,1,.15-1.76,18.36,18.36,0,0,1,1.33-5.08,4,4,0,0,1,3.8-2.46,3.11,3.11,0,0,1,3.14,2.14l.46-1.85h2.24c-.07.32-.18.74-.31,1.24s-.23.93-.26,1.09l-2.26,10.71a7.79,7.79,0,0,1-1.57,3.71A5,5,0,0,1,189,240c-2.74,0-4.12-1.05-4.12-3.11a5.31,5.31,0,0,1,.05-.81Zm4.6-12.72a2.41,2.41,0,0,0-2.25,1.78,20.67,20.67,0,0,0-.76,2.76,16.19,16.19,0,0,0-.47,3.29c0,1.29.6,1.94,1.8,1.94a2.76,2.76,0,0,0,2.46-1.47,14,14,0,0,0,1-3.36,9.75,9.75,0,0,0,.29-2.32c0-1.75-.71-2.62-2.11-2.62"/><path class="cls-22" d="M204.23,234.94l3.93-18.54h4.69a6.6,6.6,0,0,1,4,1,4.34,4.34,0,0,1,1.48,3.72,27.28,27.28,0,0,1-.57,4.57,22.05,22.05,0,0,1-1.72,5.94,5.61,5.61,0,0,1-2.8,2.79,11,11,0,0,1-4,.56Zm2.87-2h2a8.28,8.28,0,0,0,2.8-.33,3.75,3.75,0,0,0,1.9-2,20,20,0,0,0,1.3-4.55,27.3,27.3,0,0,0,.61-4.89A2.72,2.72,0,0,0,215,219a3.83,3.83,0,0,0-2.34-.53h-2.51Z"/><path class="cls-23" d="M219.08,235,221.84,222h2.22L221.29,235Zm3.41-16.28.5-2.28h2.35l-.46,2.28Z"/><path class="cls-24" d="M224.8,231h2.12l0,.41a2.36,2.36,0,0,0,0,.25,1.63,1.63,0,0,0,1.88,1.82,2.47,2.47,0,0,0,1.68-.58,2,2,0,0,0,.69-1.57c0-.81-.6-1.6-1.78-2.38l-.51-.36c-1.71-1.1-2.57-2.24-2.57-3.39a3.15,3.15,0,0,1,1.33-2.75,5.14,5.14,0,0,1,3.07-.84q4,0,4,3.3a3.62,3.62,0,0,1,0,.49h-2.18v-.33c0-1.21-.64-1.81-1.93-1.81a2.34,2.34,0,0,0-1.42.4,1.43,1.43,0,0,0-.65,1.27c0,.62.56,1.29,1.71,2,.38.24.68.44.91.6,1.55,1.06,2.33,2.25,2.33,3.56a3.73,3.73,0,0,1-1.44,3.13,5.41,5.41,0,0,1-3.38,1c-2.62,0-3.92-1-3.92-3.11a5.1,5.1,0,0,1,.14-1.1"/><path class="cls-25" d="M240.43,234.94H238.9c-1.72,0-2.58-.74-2.58-2.21,0,0,.09-.6.26-1.84l0-.08,1.55-7.3h-2.09l.31-1.5h2.09l.55-2.58,2.4-.81L240.7,222h2.5l-.32,1.5h-2.53l-1.64,7.81a4.44,4.44,0,0,0-.14.86c0,.71.53,1.07,1.61,1.07l.31,0h.32Z"/><path class="cls-26" d="M242.63,235,245.38,222h2.22L244.83,235ZM246,218.67l.49-2.28h2.36l-.46,2.28Z"/><path class="cls-27" d="M248.13,234.94l2.11-10c.16-.76.33-1.75.51-3h2.08l-.35,1.9a4.65,4.65,0,0,1,4-2.18c1.82,0,2.73,1,2.73,3a9.92,9.92,0,0,1-.27,1.8l-1.76,8.45H255l1.81-8.65a6.87,6.87,0,0,0,.19-1.24q0-1.59-1.5-1.59a3.06,3.06,0,0,0-2.75,1.91,15.21,15.21,0,0,0-1.05,3.44l-1.33,6.13Z"/><path class="cls-28" d="M270.07,230.72c-.43,3-2.15,4.54-5.17,4.54a3.74,3.74,0,0,1-2.88-1.12,4.24,4.24,0,0,1-1-3,16.8,16.8,0,0,1,.47-3.32,16.23,16.23,0,0,1,1.13-3.66,4.66,4.66,0,0,1,4.42-2.5q3.88,0,3.88,3.63c0,.1,0,.39-.05.85h-2.21v-.07a5.58,5.58,0,0,0,.06-.66c0-1.31-.62-2-1.85-2a2.39,2.39,0,0,0-2.22,1.55,17.42,17.42,0,0,0-.91,3.07,17,17,0,0,0-.49,3.22c0,1.42.68,2.12,2,2.12s2.24-.92,2.52-2.74Z"/><path class="cls-29" d="M276.73,234.94H275.2c-1.73,0-2.59-.74-2.59-2.21,0,0,.1-.6.27-1.84v-.08l1.55-7.3h-2.08l.31-1.5h2.08l.54-2.58,2.4-.81L277,222h2.5l-.31,1.5h-2.54L275,231.32a3.76,3.76,0,0,0-.14.86c0,.71.53,1.07,1.61,1.07l.3,0h.31Z"/><path class="cls-30" d="M278.92,235,281.68,222h2.22L281.13,235Zm3.41-16.28.5-2.28h2.36l-.47,2.28Z"/><path class="cls-31" d="M285.12,231.23a17.51,17.51,0,0,1,.48-3.47,14.37,14.37,0,0,1,1.14-3.54,4.82,4.82,0,0,1,4.44-2.52,4.58,4.58,0,0,1,3.16,1,3.83,3.83,0,0,1,1.19,3.05,16.48,16.48,0,0,1-.41,3.25,14.6,14.6,0,0,1-1.24,3.76,4.74,4.74,0,0,1-4.49,2.47,4.37,4.37,0,0,1-3.06-1,3.8,3.8,0,0,1-1.21-3m6-7.74a2.61,2.61,0,0,0-2.4,1.53,19.38,19.38,0,0,0-1.35,6.24,1.93,1.93,0,0,0,2.16,2.2,2.6,2.6,0,0,0,2.38-1.53,16.93,16.93,0,0,0,.95-3.25,13.24,13.24,0,0,0,.42-2.78c0-1.6-.73-2.41-2.16-2.41"/><path class="cls-32" d="M296.66,234.94l2.11-10c.16-.76.33-1.75.51-3h2.08l-.35,1.9a4.64,4.64,0,0,1,4-2.18c1.81,0,2.73,1,2.73,3a9.92,9.92,0,0,1-.27,1.8l-1.77,8.45h-2.21l1.8-8.65a6.87,6.87,0,0,0,.19-1.24c0-1.06-.49-1.59-1.49-1.59a3,3,0,0,0-2.75,1.91,15.11,15.11,0,0,0-1.06,3.44l-1.32,6.13Z"/><path class="cls-33" d="M315.52,234.94l2.42-11.43h-2.05l.33-1.5h2l.37-1.8a7.44,7.44,0,0,1,1.13-3,3.46,3.46,0,0,1,2.88-1.11,3.74,3.74,0,0,1,1.17.2l-.33,1.68a5.07,5.07,0,0,0-.77-.09,1.45,1.45,0,0,0-1.32.75,5.52,5.52,0,0,0-.51,1.54L320.5,222h2.14l-.31,1.5h-2.15l-2.45,11.43Z"/><path class="cls-34" d="M322.61,231.23a17.67,17.67,0,0,1,.49-3.47,14,14,0,0,1,1.14-3.54,4.81,4.81,0,0,1,4.44-2.52,4.57,4.57,0,0,1,3.16,1,3.84,3.84,0,0,1,1.2,3.05,16.59,16.59,0,0,1-.42,3.25,15.06,15.06,0,0,1-1.23,3.76,4.77,4.77,0,0,1-4.5,2.47,4.39,4.39,0,0,1-3.07-1,3.84,3.84,0,0,1-1.21-3m6-7.74a2.61,2.61,0,0,0-2.4,1.53,19.38,19.38,0,0,0-1.35,6.24,1.93,1.93,0,0,0,2.16,2.2,2.6,2.6,0,0,0,2.38-1.53,16.93,16.93,0,0,0,.95-3.25,13.09,13.09,0,0,0,.41-2.78c0-1.6-.71-2.41-2.15-2.41"/><path class="cls-35" d="M334.17,234.94l2.16-10.07a28.29,28.29,0,0,0,.44-2.86h2.15l-.4,2.17a3.83,3.83,0,0,1,3.54-2.29l.61,0h.08l-.44,2h-.4a3.33,3.33,0,0,0-2.89,1.31,8.62,8.62,0,0,0-1.16,3.12l-1.48,6.56Z"/><polygon class="cls-36" points="348.84 234.94 352.78 216.4 355.22 216.4 351.73 232.85 358.04 232.85 357.6 234.94 348.84 234.94"/><path class="cls-37" d="M359.29,235,362,222h2.23L361.5,235Zm3.42-16.28.48-2.28h2.36l-.46,2.28Z"/><path class="cls-38" d="M365.06,234.94l2.42-11.43h-2.06l.34-1.5h2l.37-1.8a7.44,7.44,0,0,1,1.13-3,3.46,3.46,0,0,1,2.87-1.11,3.91,3.91,0,0,1,1.19.2L373,218a5.22,5.22,0,0,0-.77-.09,1.45,1.45,0,0,0-1.32.75,5.88,5.88,0,0,0-.51,1.54L370,222h2.13l-.31,1.5h-2.14l-2.45,11.43Z"/><path class="cls-39" d="M381.66,230.79q-.93,4.47-5.2,4.47a4.45,4.45,0,0,1-3.11-1,3.85,3.85,0,0,1-1.2-3,17.74,17.74,0,0,1,.47-3.35,13.65,13.65,0,0,1,1.16-3.62,4.76,4.76,0,0,1,4.48-2.53c2.88,0,4.3,1.4,4.3,4.2a17.22,17.22,0,0,1-.41,3h-7.47a11.3,11.3,0,0,0-.28,2.36c0,1.47.81,2.2,2.42,2.2,1.24,0,2.08-.89,2.53-2.67Zm-6.62-3.5h5.14a8.8,8.8,0,0,0,.14-1.36c0-1.63-.71-2.43-2.11-2.43a2.52,2.52,0,0,0-2.26,1.21,7.89,7.89,0,0,0-.91,2.58"/></svg>